<svg width="1680" height="635" viewBox="0 0 1680 635" fill="none" xmlns="http://www.w3.org/2000/svg">
<g clip-path="url(#clip0_768_2)">
<rect width="1680" height="635" />
<path d="M4 -77L315 -2L-6.5 344.5L-124 200L4 -77Z" fill="#78E7F6"/>
<path d="M1470.5 0H1680V635H1023L1470.5 0Z" fill="#78E7F6"/>
<path d="M373 -67L472.5 -10L-5 509L-49 387.5L373 -67Z" fill="#EED032" fill-opacity="0.79"/>
<path d="M1332.5 -1H1474L1209.5 373L1078 365.5L1332.5 -1Z" fill="#EED032" fill-opacity="0.97"/>
<path d="M463.5 0H551L472.5 118L360 111.5L463.5 0Z" fill="#EED032" fill-opacity="0.79"/>
<path d="M450.38 -1L473 119L361 112.548L450.38 -1Z" fill="#EED032" fill-opacity="0.79"/>
<path d="M1082 364L1152 259L1085.5 248L1082 364Z" fill="#EED032" fill-opacity="0.7"/>
<path d="M1088 246.5L1082 364L1209 372L1017 642H858.5L1088 246.5Z" fill="#EACF40" fill-opacity="0.81"/>
<path d="M389 152H459L250 366H182L389 152Z" fill="#1E519E"/>
<path d="M1262 -27H1318L1149.5 226.5L1097 219.5L1262 -27Z" fill="#1E519E"/>
</g>
<defs>
<clipPath id="clip0_768_2">
<rect width="1680" height="635" fill="white"/>
</clipPath>
</defs>
</svg>
